<?xml version="1.0" encoding="utf-8"?>
<!-- Generator: Adobe Illustrator 25.2.0, SVG Export Plug-In . SVG Version: 6.00 Build 0)  -->
<svg version="1.1" id="Слой_1" xmlns="http://www.w3.org/2000/svg" xmlns:xlink="http://www.w3.org/1999/xlink" x="0px" y="0px"
	 viewBox="0 0 17 17" style="enable-background:new 0 0 17 17;" xml:space="preserve">
<style type="text/css">
	.st0{fill-rule:evenodd;clip-rule:evenodd;fill:#FFFFFF;}
</style>
<g>
	<path class="st0" d="M13.5,12l3.5,3.5L15.6,17L12,13.5c-1.3,1-2.8,1.5-4.5,1.5C3.4,15,0,11.6,0,7.5C0,3.4,3.4,0,7.5,0
		C11.6,0,15,3.4,15,7.5C15,9.1,14.5,10.7,13.5,12z M7.5,2C4.5,2,2,4.5,2,7.5c0,3,2.5,5.5,5.5,5.5c3,0,5.5-2.5,5.5-5.5
		C13,4.5,10.5,2,7.5,2z"/>
</g>
</svg>
