<?xml version="1.0" encoding="utf-8"?>
<!-- Generator: Adobe Illustrator 25.2.0, SVG Export Plug-In . SVG Version: 6.00 Build 0)  -->
<svg version="1.1" id="Слой_1" xmlns="http://www.w3.org/2000/svg" xmlns:xlink="http://www.w3.org/1999/xlink" x="0px" y="0px"
	 viewBox="0 0 19.2 19.8" style="enable-background:new 0 0 19.2 19.8;" xml:space="preserve">
<style type="text/css">
	.st0{fill:#B7BFC8;}
</style>
<path class="st0" d="M15.6,19.4h-0.9C10.5,19,7.5,17,5.3,14.6c-2.2-2.5-4-5.6-4.3-9.9V3.5C1,2.8,1.4,2.2,1.9,1.8
	C2.4,1.2,3.2,0.5,4,0.5c0.6,0,1.5,0.4,1.9,0.9c0.3,0.4,0.5,1.3,0.7,2C6.7,4,7,5,6.9,5.7c-0.1,1-1.5,1.4-1.9,2.2
	c1.3,3.1,3.4,5.4,6.3,7c0.7-0.4,1.3-1.6,2.3-1.6c0.4,0,0.8,0.2,1.2,0.3c0.4,0.1,0.8,0.3,1.1,0.4c0.6,0.2,1.6,0.5,2,1
	c0.4,0.5,0.6,1.4,0.5,1.9C18.3,17.9,16.6,19.1,15.6,19.4z"/>
</svg>
