<?xml version="1.0" encoding="utf-8"?>
<!-- Generator: Adobe Illustrator 25.2.0, SVG Export Plug-In . SVG Version: 6.00 Build 0)  -->
<svg version="1.1" id="Слой_1" xmlns="http://www.w3.org/2000/svg" xmlns:xlink="http://www.w3.org/1999/xlink" x="0px" y="0px"
	 viewBox="0 0 27 21" style="enable-background:new 0 0 27 21;" xml:space="preserve">
<style type="text/css">
	.st0{fill:#9E9E9E;}
	.st1{fill:#FFFFFF;}
</style>
<g>
	<path class="st0" d="M10.8,18.8c-0.3,0-0.5-0.1-0.7-0.3L3.6,12c-0.4-0.4-0.4-1,0-1.4L6,8.2C6.1,8.1,6.4,8,6.6,8s0.5,0.1,0.7,0.3
		l3.4,3.4l8.5-8.5C19.5,3,19.7,2.9,20,2.9l0,0c0.3,0,0.5,0.1,0.7,0.3L23,5.6c0.4,0.4,0.4,1,0,1.4L11.5,18.5
		C11.3,18.7,11,18.8,10.8,18.8z"/>
	<path class="st1" d="M20,3.9l2.3,2.3L10.8,17.8l-6.5-6.5L6.6,9l4.1,4.1L20,3.9 M20,1.9c-0.5,0-1,0.2-1.4,0.6l-7.8,7.8L8.1,7.6
		C7.7,7.2,7.2,7,6.6,7c-0.5,0-1,0.2-1.4,0.6L2.9,10c-0.8,0.8-0.8,2,0,2.8l6.5,6.5c0.4,0.4,0.9,0.6,1.4,0.6s1-0.2,1.4-0.6L23.8,7.7
		c0.8-0.8,0.8-2,0-2.8l-2.3-2.3C21,2.1,20.5,1.9,20,1.9L20,1.9z"/>
</g>
</svg>
